<svg aria-hidden="true" style="position: absolute; width: 0; height: 0; overflow: hidden;" version="1.1" xmlns="http://www.w3.org/2000/svg" xmlns:xlink="http://www.w3.org/1999/xlink">
<defs>
<symbol id="icon-window" viewBox="0 0 32 32">
<title>window</title>
<path d="M0.241 0v2.199h1.12v29.801h7.822v-1.099c0-0.309-0.003-0.609-0.009-0.902h13.652c-0.006 0.293-0.009 0.593-0.009 0.902v1.099h7.822v-29.801h1.12v-2.199h-31.517zM18.375 2.199c-0.016 3.133 0.018 7.815 3.264 13.39h-4.539v-13.39h1.275zM3.56 29.801v-27.602h7.866c0.021 3.997-0.036 9.973-6.672 17.271l-0.804 0.884 0.948 0.728c0.020 0.015 1.89 1.77 2.071 8.719h-3.41zM14.901 27.8h-5.833c-0.336-4.247-1.332-6.474-2.054-7.562 0.718-0.831 1.357-1.648 1.928-2.449h5.96v10.012zM14.901 15.589h-4.539c3.245-5.575 3.28-10.258 3.264-13.39h1.275v13.39zM22.933 27.8h-5.833v-10.012h5.96c0.571 0.802 1.21 1.619 1.928 2.449-0.722 1.088-1.719 3.315-2.054 7.562zM28.44 29.801h-3.409c0.058-2.142 0.305-4.774 1.055-6.835 0.471-1.295 0.943-1.806 1.031-1.895l0.992-0.652-0.864-0.95c-6.636-7.298-6.693-13.274-6.672-17.271h7.866v27.602z"></path>
</symbol>
<symbol id="icon-house" viewBox="0 0 32 32">
<title>house</title>
<path d="M16 0l-16 16h4v16h24v-16h4l-16-16zM24 28h-6v-6h-4v6h-6v-14.344l8-5.656 8 5.656v14.344z"></path>
</symbol>
<symbol id="icon-tv" viewBox="0 0 32 32">
<title>tv</title>
<path d="M0 29.333c0 1.473 1.193 2.667 2.667 2.667h26.667c1.473 0 2.667-1.193 2.667-2.667l-0-18.667c0-1.473-1.193-2.667-2.667-2.667h-11.687l5.207-5.207c0.641-0.64 0.641-1.673 0-2.313s-1.673-0.64-2.313 0l-7.527 7.52h-0.033l-5.52-5.52c-0.64-0.64-1.673-0.64-2.313 0s-0.64 1.673 0 2.313l3.2 3.207h-5.68c-1.473 0-2.667 1.193-2.667 2.667v18.667zM4.8 11.333h16.4c0.813 0 1.467 0.653 1.467 1.467v14.4c0 0.813-0.653 1.467-1.467 1.467h-16.4c-0.813 0-1.467-0.653-1.467-1.467v-14.4c0-0.813 0.653-1.467 1.467-1.467zM25.333 13c0-0.92 0.747-1.667 1.667-1.667s1.667 0.747 1.667 1.667-0.747 1.667-1.667 1.667-1.667-0.747-1.667-1.667zM25.333 18.333c0-0.92 0.747-1.667 1.667-1.667s1.667 0.747 1.667 1.667-0.747 1.667-1.667 1.667-1.667-0.747-1.667-1.667z"></path>
</symbol>
<symbol id="icon-key" viewBox="0 0 32 32">
<title>key</title>
<path d="M1.442 25.481c-1.034 1.033-1.034 2.713 0 3.746s2.713 1.034 3.739 0l0.747-0.739 3.114 3.113c0.533 0.533 1.386 0.533 1.919 0l4.641-4.641c0.533-0.533 0.533-1.386 0-1.919l-3.113-3.113 5.546-5.553c1.188 0.613 2.541 0.959 3.968 0.959 4.787 0 8.667-3.879 8.667-8.667s-3.88-8.667-8.667-8.667c-4.788 0-8.667 3.88-8.667 8.667 0 1.427 0.347 2.78 0.959 3.967l-12.853 12.847zM18.669 8.667c0-1.84 1.493-3.333 3.333-3.333s3.333 1.493 3.333 3.333-1.493 3.333-3.333 3.333-3.333-1.493-3.333-3.333z"></path>
</symbol>
<symbol id="icon-food" viewBox="0 0 32 32">
<title>food</title>
<path d="M15.541 6.454c-1.973 1.973-1.514 4.54-2.174 7.040l-11.067-11.174c-0.24-0.253-0.587-0.413-0.967-0.413-0.733 0-1.333 0.593-1.333 1.333v0.453c0 4.020 1.734 11.46 7.147 17.42l-6.374 6.367c-1.033 1.033-1.033 2.713 0 3.746s2.713 1.034 3.74 0l6.353-6.36 3.8 3.8 3.28-2.98 5.541 5.54c1.026 1.034 2.707 1.034 3.739 0 1.034-1.033 1.034-2.713 0-3.746l-8.767-8.841c2.527-0.693 5.113-0.207 7.087-2.181l5.959-5.959c0.66-0.653 0.66-1.72 0-2.379-0.66-0.661-1.727-0.661-2.38 0l-5.246 5.239c-0.393 0.393-1.034 0.393-1.427 0-0.4-0.393-0.4-1.033 0-1.427l5.24-5.247c0.659-0.653 0.659-1.72 0-2.38s-1.727-0.659-2.379 0l-5.247 5.24c-0.393 0.4-1.033 0.4-1.427 0-0.393-0.393-0.393-1.034 0-1.427l5.24-5.247c0.66-0.653 0.66-1.72 0-2.38s-1.727-0.66-2.38 0l-5.959 5.961z"></path>
</symbol>
<symbol id="icon-wifi" viewBox="0 0 32 32">
<title>wifi</title>
<path d="M17.885 25.883c1.044-1.039 1.044-2.729 0-3.768-1.041-1.047-2.732-1.047-3.771-0.003-1.044 1.044-1.044 2.735 0 3.775 1.041 1.040 2.732 1.041 3.771-0.004z"></path>
<path d="M27.313 15.353c-0.683 0-1.365-0.26-1.885-0.781-5.199-5.199-13.657-5.197-18.857 0-1.043 1.041-2.731 1.040-3.772 0-1.041-1.041-1.041-2.729 0-3.772 7.279-7.277 19.121-7.277 26.399 0 1.041 1.041 1.041 2.729 0 3.771-0.519 0.521-1.201 0.783-1.884 0.783z"></path>
<path d="M10.343 21.009c-0.683 0-1.365-0.26-1.885-0.781-1.041-1.041-1.041-2.729 0-3.771 4.157-4.159 10.925-4.159 15.084 0 1.041 1.041 1.041 2.729 0 3.772-1.041 1.041-2.729 1.041-3.772 0-2.079-2.080-5.463-2.079-7.543 0-0.519 0.52-1.201 0.78-1.884 0.78z"></path>
</symbol>
<symbol id="icon-cake" viewBox="0 0 32 32">
<title>cake</title>
<path d="M24 12c2.188 0 4 1.813 4 4v2.063c0 1.438-1.188 2.625-2.625 2.625-0.688 0-1.313-0.25-1.813-0.75l-2.875-2.875-2.875 2.875c-1 1-2.688 1-3.688 0l-2.813-2.875-2.875 2.875c-0.5 0.5-1.125 0.75-1.813 0.75-1.438 0-2.625-1.188-2.625-2.625v-2.063c0-2.188 1.813-4 4-4h6.688v-2.688h2.625v2.688h6.688zM22.125 21.313c0.875 0.875 2 1.375 3.25 1.375 1 0 1.875-0.313 2.625-0.813v6.125c0 0.75-0.563 1.313-1.313 1.313h-21.375c-0.75 0-1.313-0.563-1.313-1.313v-6.125c0.75 0.5 1.625 0.813 2.625 0.813 1.25 0 2.375-0.5 3.25-1.375l1.438-1.438 1.438 1.438c1.75 1.75 4.75 1.75 6.5 0l1.438-1.438zM16 8c-1.438 0-2.688-1.25-2.688-2.688 0-0.5 0.188-1 0.438-1.375l2.25-3.938 2.25 3.938c0.25 0.375 0.438 0.875 0.438 1.375 0 1.438-1.188 2.688-2.688 2.688z"></path>
</symbol>
<symbol id="icon-fridge" viewBox="0 0 32 32">
<title>fridge</title>
<path d="M10.688 16h2.625v6.688h-2.625v-6.688zM10.688 6.688h2.625v4h-2.625v-4zM24 12v-6.688h-16v6.688h16zM24 26.688v-12.063h-16v12.063h16zM24 2.688c1.438 0 2.688 1.125 2.688 2.625v21.375c0 1.438-1.25 2.625-2.688 2.625h-16c-1.438 0-2.688-1.188-2.688-2.625v-21.375c0-1.5 1.25-2.625 2.688-2.625h16z"></path>
</symbol>
<symbol id="icon-smoke" viewBox="0 0 32 32">
<title>smoke</title>
<path d="M22.688 21.25l-3.938-3.938h3.938v3.938zM19.313 11.625c-2.438 0-4.438-2.063-4.438-4.5s2-4.438 4.438-4.438v2c-1.375 0-2.438 0.938-2.438 2.313s1.063 2.688 2.438 2.688h2.063c2.5 0 4.625 1.813 4.625 4.188v2.125h-2v-1.688c0-1.75-1.25-2.688-2.625-2.688h-2.063zM25.125 6.5c2.5 1.188 4.188 3.75 4.188 6.75v2.75h-2v-2.75c0-3-2.313-5.438-5.313-5.438v-2c1.375 0 2.438-1.125 2.438-2.5h2c0 1.25-0.5 2.375-1.313 3.188zM24 17.313h2v4h-2v-4zM27.313 17.313h2v4h-2v-4zM2.688 8l1.625-1.688 22.688 22.688-1.688 1.688-9.313-9.375h-13.313v-4h9.313z"></path>
</symbol>
<symbol id="icon-mail" viewBox="0 0 32 32">
<title>mail</title>
<path d="M29.714 26.857v-13.714c-0.375 0.429-0.786 0.821-1.232 1.179-2.554 1.964-5.125 3.964-7.607 6.036-1.339 1.125-3 2.5-4.857 2.5h-0.036c-1.857 0-3.518-1.375-4.857-2.5-2.482-2.071-5.054-4.071-7.607-6.036-0.446-0.357-0.857-0.75-1.232-1.179v13.714c0 0.304 0.268 0.571 0.571 0.571h26.286c0.304 0 0.571-0.268 0.571-0.571zM29.714 8.089c0-0.446 0.107-1.232-0.571-1.232h-26.286c-0.304 0-0.571 0.268-0.571 0.571 0 2.036 1.018 3.804 2.625 5.071 2.393 1.875 4.786 3.768 7.161 5.661 0.946 0.768 2.661 2.411 3.911 2.411h0.036c1.25 0 2.964-1.643 3.911-2.411 2.375-1.893 4.768-3.786 7.161-5.661 1.161-0.911 2.625-2.893 2.625-4.411zM32 7.429v19.429c0 1.571-1.286 2.857-2.857 2.857h-26.286c-1.571 0-2.857-1.286-2.857-2.857v-19.429c0-1.571 1.286-2.857 2.857-2.857h26.286c1.571 0 2.857 1.286 2.857 2.857z"></path>
</symbol>
<symbol id="icon-location" viewBox="0 0 18 32">
<title>location</title>
<path d="M13.714 11.429c0-2.518-2.054-4.571-4.571-4.571s-4.571 2.054-4.571 4.571 2.054 4.571 4.571 4.571 4.571-2.054 4.571-4.571zM18.286 11.429c0 1.089-0.125 2.214-0.589 3.196l-6.5 13.821c-0.375 0.786-1.196 1.268-2.054 1.268s-1.679-0.482-2.036-1.268l-6.518-13.821c-0.464-0.982-0.589-2.107-0.589-3.196 0-5.054 4.089-9.143 9.143-9.143s9.143 4.089 9.143 9.143z"></path>
</symbol>
<symbol id="icon-phone" viewBox="0 0 25 32">
<title>phone</title>
<path d="M25.143 22.143c0 0.643-0.286 1.893-0.554 2.482-0.375 0.875-1.375 1.446-2.179 1.893-1.054 0.571-2.125 0.911-3.321 0.911-1.661 0-3.161-0.679-4.679-1.232-1.089-0.393-2.143-0.875-3.125-1.482-3.036-1.875-6.696-5.536-8.571-8.571-0.607-0.982-1.089-2.036-1.482-3.125-0.554-1.518-1.232-3.018-1.232-4.679 0-1.196 0.339-2.268 0.911-3.321 0.446-0.804 1.018-1.804 1.893-2.179 0.589-0.268 1.839-0.554 2.482-0.554 0.125 0 0.25 0 0.375 0.054 0.375 0.125 0.768 1 0.946 1.357 0.571 1.018 1.125 2.054 1.714 3.054 0.286 0.464 0.821 1.036 0.821 1.589 0 1.089-3.232 2.679-3.232 3.643 0 0.482 0.446 1.107 0.696 1.536 1.804 3.25 4.054 5.5 7.304 7.304 0.429 0.25 1.054 0.696 1.536 0.696 0.964 0 2.554-3.232 3.643-3.232 0.554 0 1.125 0.536 1.589 0.821 1 0.589 2.036 1.143 3.054 1.714 0.357 0.179 1.232 0.571 1.357 0.946 0.054 0.125 0.054 0.25 0.054 0.375z"></path>
</symbol>
<symbol id="icon-moon" viewBox="0 0 26 32">
<title>moon</title>
<path d="M22.536 23.268c-0.643 0.107-1.304 0.161-1.964 0.161-6.625 0-12-5.375-12-12 0-2.268 0.661-4.482 1.857-6.375-4.75 1.411-8.143 5.768-8.143 10.946 0 6.304 5.125 11.429 11.429 11.429 3.446 0 6.679-1.571 8.821-4.161zM26.161 21.75c-2.232 4.839-7.125 7.964-12.446 7.964-7.554 0-13.714-6.161-13.714-13.714 0-7.411 5.804-13.429 13.196-13.696 0.5-0.018 0.911 0.268 1.089 0.696 0.196 0.446 0.071 0.964-0.268 1.286-2.036 1.857-3.161 4.393-3.161 7.143 0 5.357 4.357 9.714 9.714 9.714 1.411 0 2.768-0.304 4.071-0.911 0.446-0.196 0.946-0.107 1.286 0.232s0.429 0.857 0.232 1.286z"></path>
</symbol>
<symbol id="icon-car" viewBox="0 0 37 32">
<title>car</title>
<path d="M8.571 19.429c0-1.571-1.286-2.857-2.857-2.857s-2.857 1.286-2.857 2.857 1.286 2.857 2.857 2.857 2.857-1.286 2.857-2.857zM9.214 13.714h18.143l-1.589-6.375c-0.054-0.196-0.411-0.482-0.625-0.482h-13.714c-0.214 0-0.571 0.286-0.625 0.482zM33.714 19.429c0-1.571-1.286-2.857-2.857-2.857s-2.857 1.286-2.857 2.857 1.286 2.857 2.857 2.857 2.857-1.286 2.857-2.857zM36.571 17.714v6.857c0 0.321-0.25 0.571-0.571 0.571h-1.714v2.286c0 1.893-1.536 3.429-3.429 3.429s-3.429-1.536-3.429-3.429v-2.286h-18.286v2.286c0 1.893-1.536 3.429-3.429 3.429s-3.429-1.536-3.429-3.429v-2.286h-1.714c-0.321 0-0.571-0.25-0.571-0.571v-6.857c0-2.214 1.786-4 4-4h0.5l1.875-7.482c0.554-2.25 2.732-3.946 5.054-3.946h13.714c2.321 0 4.5 1.696 5.054 3.946l1.875 7.482h0.5c2.214 0 4 1.786 4 4z"></path>
</symbol>
<symbol id="icon-bed" viewBox="0 0 37 32">
<title>bed</title>
<path d="M4.571 18.286h30.857c0.625 0 1.143 0.518 1.143 1.143v8h-4.571v-4.571h-27.429v4.571h-4.571v-21.714c0-0.625 0.518-1.143 1.143-1.143h2.286c0.625 0 1.143 0.518 1.143 1.143v12.571zM14.857 12.571c0-2.518-2.054-4.571-4.571-4.571s-4.571 2.054-4.571 4.571 2.054 4.571 4.571 4.571 4.571-2.054 4.571-4.571zM36.571 17.143v-1.143c0-3.786-3.071-6.857-6.857-6.857h-12.571c-0.625 0-1.143 0.518-1.143 1.143v6.857h20.571z"></path>
</symbol>
<symbol id="icon-bath" viewBox="0 0 32 32">
<title>bath</title>
<path d="M29.714 19.429v3.429c0 2.036-0.893 3.839-2.286 5.107v3.464c0 0.321-0.25 0.571-0.571 0.571h-1.143c-0.321 0-0.571-0.25-0.571-0.571v-2.107c-0.714 0.25-1.482 0.393-2.286 0.393h-13.714c-0.804 0-1.571-0.143-2.286-0.393v1.964c0 0.393-0.25 0.714-0.571 0.714h-1.143c-0.321 0-0.571-0.321-0.571-0.714v-3.321c-1.393-1.268-2.286-3.071-2.286-5.107v-3.429h27.429zM12.571 12c0 0.321-0.25 0.571-0.571 0.571s-0.571-0.25-0.571-0.571 0.25-0.571 0.571-0.571 0.571 0.25 0.571 0.571zM13.714 10.857c0 0.321-0.25 0.571-0.571 0.571s-0.571-0.25-0.571-0.571 0.25-0.571 0.571-0.571 0.571 0.25 0.571 0.571zM12.571 9.714c0 0.321-0.25 0.571-0.571 0.571s-0.571-0.25-0.571-0.571 0.25-0.571 0.571-0.571 0.571 0.25 0.571 0.571zM14.857 9.714c0 0.321-0.25 0.571-0.571 0.571s-0.571-0.25-0.571-0.571 0.25-0.571 0.571-0.571 0.571 0.25 0.571 0.571zM13.714 8.571c0 0.321-0.25 0.571-0.571 0.571s-0.571-0.25-0.571-0.571 0.25-0.571 0.571-0.571 0.571 0.25 0.571 0.571zM12.571 7.429c0 0.321-0.25 0.571-0.571 0.571s-0.571-0.25-0.571-0.571 0.25-0.571 0.571-0.571 0.571 0.25 0.571 0.571zM32 16.571v1.143c0 0.321-0.25 0.571-0.571 0.571h-30.857c-0.321 0-0.571-0.25-0.571-0.571v-1.143c0-0.321 0.25-0.571 0.571-0.571h1.714v-11.429c0-2.518 2.054-4.571 4.571-4.571 1.286 0 2.446 0.536 3.286 1.393 1.107-0.446 2.429-0.286 3.411 0.482l0.393-0.393c0.107-0.107 0.286-0.107 0.393 0l0.75 0.75c0.107 0.107 0.107 0.286 0 0.393l-5.607 5.607c-0.107 0.107-0.286 0.107-0.393 0l-0.75-0.75c-0.107-0.107-0.107-0.286 0-0.393l0.393-0.393c-0.857-1.089-0.964-2.589-0.304-3.786-0.411-0.393-0.964-0.625-1.571-0.625-1.268 0-2.286 1.018-2.286 2.286v11.429h26.857c0.321 0 0.571 0.25 0.571 0.571zM16 8.571c0 0.321-0.25 0.571-0.571 0.571s-0.571-0.25-0.571-0.571 0.25-0.571 0.571-0.571 0.571 0.25 0.571 0.571zM14.857 7.429c0 0.321-0.25 0.571-0.571 0.571s-0.571-0.25-0.571-0.571 0.25-0.571 0.571-0.571 0.571 0.25 0.571 0.571zM13.714 6.286c0 0.321-0.25 0.571-0.571 0.571s-0.571-0.25-0.571-0.571 0.25-0.571 0.571-0.571 0.571 0.25 0.571 0.571zM17.143 7.429c0 0.321-0.25 0.571-0.571 0.571s-0.571-0.25-0.571-0.571 0.25-0.571 0.571-0.571 0.571 0.25 0.571 0.571zM16 6.286c0 0.321-0.25 0.571-0.571 0.571s-0.571-0.25-0.571-0.571 0.25-0.571 0.571-0.571 0.571 0.25 0.571 0.571zM14.857 5.143c0 0.321-0.25 0.571-0.571 0.571s-0.571-0.25-0.571-0.571 0.25-0.571 0.571-0.571 0.571 0.25 0.571 0.571zM18.286 6.286c0 0.321-0.25 0.571-0.571 0.571s-0.571-0.25-0.571-0.571 0.25-0.571 0.571-0.571 0.571 0.25 0.571 0.571zM17.143 5.143c0 0.321-0.25 0.571-0.571 0.571s-0.571-0.25-0.571-0.571 0.25-0.571 0.571-0.571 0.571 0.25 0.571 0.571zM19.429 5.143c0 0.321-0.25 0.571-0.571 0.571s-0.571-0.25-0.571-0.571 0.25-0.571 0.571-0.571 0.571 0.25 0.571 0.571z"></path>
</symbol>
</defs>
</svg>
